<mxfile host="app.diagrams.net" agent="Mozilla/5.0 (Macintosh; Intel Mac OS X 10_15_7) AppleWebKit/605.1.15 (KHTML, like Gecko) Version/17.5 Safari/605.1.15" version="26.2.9">
  <diagram name="第 1 页" id="N1ktuMYxC0xjPU81t7EE">
    <mxGraphModel dx="534" dy="358" grid="1" gridSize="10" guides="1" tooltips="1" connect="1" arrows="1" fold="1" page="1" pageScale="1" pageWidth="827" pageHeight="1169" math="0" shadow="0">
      <root>
        <mxCell id="0" />
        <mxCell id="1" parent="0" />
        <mxCell id="xFbsaBaTl6VwVrB7iPjq-132" value="" style="rounded=0;whiteSpace=wrap;html=1;" vertex="1" parent="1">
          <mxGeometry x="260" y="410" width="180" height="110" as="geometry" />
        </mxCell>
        <mxCell id="xFbsaBaTl6VwVrB7iPjq-133" value="" style="rounded=1;whiteSpace=wrap;html=1;fillColor=#f5f5f5;fontColor=#333333;strokeColor=#666666;" vertex="1" parent="1">
          <mxGeometry x="270" y="420" width="160" height="30" as="geometry" />
        </mxCell>
        <mxCell id="xFbsaBaTl6VwVrB7iPjq-134" value="" style="rounded=1;whiteSpace=wrap;html=1;fillColor=#f5f5f5;fontColor=#333333;strokeColor=#666666;" vertex="1" parent="1">
          <mxGeometry x="270" y="471" width="160" height="30" as="geometry" />
        </mxCell>
        <mxCell id="xFbsaBaTl6VwVrB7iPjq-135" value="本地设备任务请求队列" style="text;html=1;align=center;verticalAlign=middle;whiteSpace=wrap;rounded=0;" vertex="1" parent="1">
          <mxGeometry x="278" y="442" width="136" height="30" as="geometry" />
        </mxCell>
        <mxCell id="xFbsaBaTl6VwVrB7iPjq-137" value="外部任务请求队列" style="text;html=1;align=center;verticalAlign=middle;whiteSpace=wrap;rounded=0;" vertex="1" parent="1">
          <mxGeometry x="278" y="495" width="136" height="30" as="geometry" />
        </mxCell>
        <mxCell id="xFbsaBaTl6VwVrB7iPjq-138" value="" style="ellipse;whiteSpace=wrap;html=1;aspect=fixed;" vertex="1" parent="1">
          <mxGeometry x="278" y="425" width="20" height="20" as="geometry" />
        </mxCell>
        <mxCell id="xFbsaBaTl6VwVrB7iPjq-139" value="" style="ellipse;whiteSpace=wrap;html=1;aspect=fixed;" vertex="1" parent="1">
          <mxGeometry x="301" y="425" width="20" height="20" as="geometry" />
        </mxCell>
        <mxCell id="xFbsaBaTl6VwVrB7iPjq-140" value="" style="ellipse;whiteSpace=wrap;html=1;aspect=fixed;" vertex="1" parent="1">
          <mxGeometry x="324" y="425" width="20" height="20" as="geometry" />
        </mxCell>
        <mxCell id="xFbsaBaTl6VwVrB7iPjq-141" value="" style="ellipse;whiteSpace=wrap;html=1;aspect=fixed;" vertex="1" parent="1">
          <mxGeometry x="347" y="425" width="20" height="20" as="geometry" />
        </mxCell>
        <mxCell id="xFbsaBaTl6VwVrB7iPjq-142" value="" style="ellipse;whiteSpace=wrap;html=1;aspect=fixed;" vertex="1" parent="1">
          <mxGeometry x="278" y="476" width="20" height="20" as="geometry" />
        </mxCell>
        <mxCell id="xFbsaBaTl6VwVrB7iPjq-143" value="" style="ellipse;whiteSpace=wrap;html=1;aspect=fixed;" vertex="1" parent="1">
          <mxGeometry x="370" y="425" width="20" height="20" as="geometry" />
        </mxCell>
        <mxCell id="xFbsaBaTl6VwVrB7iPjq-147" value="" style="ellipse;whiteSpace=wrap;html=1;aspect=fixed;" vertex="1" parent="1">
          <mxGeometry x="301" y="476" width="20" height="20" as="geometry" />
        </mxCell>
      </root>
    </mxGraphModel>
  </diagram>
</mxfile>
